<svg version="1.2" xmlns="http://www.w3.org/2000/svg" viewBox="0 0 188 188" width="188" height="188">
	<title>logo_blue-svg</title>
	<defs>
		<linearGradient id="g1" x1="161.3" y1="30.3" x2="25.3" y2="158.9" gradientUnits="userSpaceOnUse">
			<stop offset="0" stop-color="#2bbecd"/>
			<stop offset="1" stop-color="#5161d0"/>
		</linearGradient>
	</defs>
	<style>
		.s0 { fill: #ffffff } 
		.s1 { fill: url(#g1) } 
	</style>
	<g id="Layer">
		<path id="fullLogo" class="s0" d="m224.7 109.5l12.3-7.1c2.2 5.2 6.1 8.6 13.1 8.6c6.8 0 8.5-2.6 8.5-5c0-3.9-3.6-5.4-12.9-8c-9.3-2.5-18.4-7-18.4-18.9c0-12.1 10.2-19 20.9-19c10.3 0 18.3 4.9 22.8 14.1l-12 7c-2.1-4.4-5.1-7.2-10.8-7.2c-4.4 0-6.6 2.2-6.6 4.7c0 2.9 1.5 4.8 11.2 7.8c9.4 2.8 20 6.1 20 19.3c0 12-9.6 19.1-23.1 19.1c-13.1 0-21.5-6.2-25-15.4z" />
		<path id="fullLogo-2" class="s0" d="m306 99.7v24h-14.3v-24l-20.9-38.4h16.2l11.8 24.1l11.9-24.1h16.2z" />
		<path id="fullLogo-3" class="s0" d="m380.1 61.3v62.4h-10.7l-24-33.9v33.9h-14.3v-62.4h10.7l24 33.9v-33.9z" />
		<path id="fullLogo-4" class="s0" d="m387 92.5c0-18.3 13.6-32.4 32.4-32.4c2.6 0 5.3 0.3 7.8 0.9c2.6 0.6 5.1 1.6 7.4 2.8c2.3 1.3 4.5 2.8 6.4 4.6c2 1.8 3.7 3.9 5.1 6.1l-12.3 7.2c-2.8-4.9-8.1-7.7-14.4-7.7c-11.1 0-18.2 7.4-18.2 18.5c0 11.1 7.1 18.5 18.2 18.5c6.3 0 11.7-2.8 14.4-7.6l12.3 7.1c-5.4 8.8-15.3 14.4-26.7 14.4c-18.8 0-32.4-14-32.4-32.4z" />
		<path id="fullLogo-5" class="s0" d="m522.7 61.3v62.4h-10.7l-24.1-33.9v33.9h-14.2v-62.4h10.7l24 33.9v-33.9z" />
		<path id="fullLogo-6" fill-rule="evenodd" class="s0" d="m554.4 113q1.2 0 2.4-0.2q1.1-0.2 2.2-0.6q1.1-0.5 2.1-1.1q1-0.6 1.8-1.5l10.7 6.2c-4.3 6-10.9 9.1-19.4 9.1c-15.2 0-24.6-10.2-24.6-23.5c0-13.2 9.6-23.5 23.6-23.5c13 0 22.7 10.1 22.7 23.5q0 0.7-0.1 1.4q0 0.6-0.1 1.3q0 0.7-0.1 1.3q-0.1 0.7-0.3 1.4h-31.6c1.7 4.6 5.8 6.2 10.7 6.2zm8.2-16.2c-1.4-5.2-5.4-7-9.4-7c-5.1 0-8.5 2.4-9.7 7z" />
		<path id="fullLogo-7" class="s0" d="m597.9 92v15.7c0 3.9 3.3 4.2 9.2 3.9v12.1c-17.4 1.8-22.5-3.5-22.5-16v-15.7h-7.1v-12.8h7.1v-8.5l13.3-4v12.5h9.2v12.8z" />
		<path id="fullLogo-8" class="s0" d="m677.6 79.2l-14.2 44.5h-12.5l-7.1-23.8l-7.1 23.8h-12.5l-14.2-44.5h14.2l6.5 23.8l6.9-23.8h12.5l6.9 23.8l6.4-23.8z" />
		<path id="fullLogo-9" fill-rule="evenodd" class="s0" d="m692.4 123.2c-2.8-1.2-5.4-2.9-7.6-5.1c-2.2-2.2-4-4.8-5.2-7.6c-1.1-2.9-1.7-6-1.7-9.1c0-9.5 5.7-18 14.5-21.7c8.8-3.6 18.9-1.6 25.6 5.1c6.7 6.7 8.8 16.8 5.1 25.6c-3.6 8.8-12.1 14.5-21.6 14.5c-3.1 0.1-6.2-0.5-9.1-1.7zm19.3-21.8c0-6.3-4.4-10.5-10.2-10.5c-5.8 0-10.3 4.2-10.3 10.5c0 6.3 4.5 10.5 10.3 10.5c5.8 0 10.2-4.2 10.2-10.5z" />
		<path id="fullLogo-10" class="s0" d="m758.2 78.3v15.1c-5.5-0.9-13.3 1.3-13.3 10.2v20.1h-13.4v-44.5h13.4v7.9c1.8-6 7.7-8.8 13.3-8.8z" />
		<path id="fullLogo-11" class="s0" d="m791 123.7l-14.3-19.7v19.7h-13.3v-62.4h13.3v37.4l13.4-19.5h15.6l-16.2 22.2l16.6 22.3z" />
		<g id="logoMark">
			<path id="logoMark_PathItem_" class="s1" d="m187.9 94c0 38-22.9 72.2-58 86.8c-35.1 14.5-75.5 6.4-102.4-20.4c-26.9-26.9-34.9-67.3-20.3-102.4c14.5-35.1 48.8-58 86.8-58c12.3 0 24.5 2.4 35.9 7.2c11.4 4.7 21.8 11.6 30.5 20.3c8.7 8.8 15.6 19.1 20.4 30.5c4.7 11.4 7.1 23.7 7.1 36z" />
			<path id="logoMark_CompoundPathItem_" fill-rule="evenodd" class="s0" d="m119.8 113.5c4.1 3.7 6.9 8.9 6.9 16.8c0 16.2-13.2 28-35.6 28c-12.6 0-26.8-3.9-34.2-9.3l7.1-17.3c7.1 5.2 18 8.6 27.4 8.6c9 0 14-3.6 14-9.3c0-16.3-47.5-3.9-47.5-36.4q0-2.9 0.6-5.8q0.6-2.9 1.9-5.5q1.3-2.7 3.2-5q1.9-2.2 4.2-4c-4-3.6-6.6-8.8-6.6-16.4c0-16.4 13.4-28.2 39-28.2c9.1 0 23.3 2.5 30.8 7.6l-6.9 17.1c-8-5-16.5-6.7-25.3-6.7c-11.4 0-16.3 3.6-16.3 9.3c0 15.1 47.1 3.7 47.1 37.3c0 7.6-3.5 14.4-9.8 19.2zm-18.4-8.2c4.5-2 7.4-5.6 7.4-10.4c0-8.2-11.1-9.6-22.5-12.4c-4.6 2-7.5 5.8-7.5 10.4c0 8.4 11.1 9.6 22.6 12.4z" />
		</g>
	</g>
</svg>